<mxfile host="Electron" agent="Mozilla/5.0 (Windows NT 10.0; Win64; x64) AppleWebKit/537.36 (KHTML, like Gecko) draw.io/26.0.4 Chrome/128.0.6613.186 Electron/32.2.5 Safari/537.36" version="26.0.4">
  <diagram name="PÃ¡gina-1" id="q8bP3qXDDJWIK7PAdNEP">
    <mxGraphModel dx="3000" dy="1774" grid="0" gridSize="10" guides="1" tooltips="1" connect="1" arrows="1" fold="1" page="1" pageScale="1" pageWidth="827" pageHeight="1169" background="#ffffff" math="0" shadow="0" adaptiveColors="none">
      <root>
        <mxCell id="0" />
        <mxCell id="1" parent="0" />
        <mxCell id="BdzRvveyDMJGJID9cPw9-22" value="&lt;div style=&quot;text-align: left;&quot;&gt;&lt;span style=&quot;background-color: transparent; color: light-dark(rgb(0, 0, 0), rgb(255, 255, 255));&quot;&gt;&lt;u&gt;KEYPAD:&lt;/u&gt;&lt;/span&gt;&lt;/div&gt;&lt;div style=&quot;text-align: left;&quot;&gt;&lt;span style=&quot;background-color: transparent; color: light-dark(rgb(0, 0, 0), rgb(255, 255, 255));&quot;&gt;&lt;br&gt;&lt;/span&gt;&lt;/div&gt;&lt;div style=&quot;&quot;&gt;ROW-&amp;gt; P1.0-P1.3 (input + pull-up)&lt;/div&gt;&lt;div style=&quot;text-align: left;&quot;&gt;COLUMN-&amp;gt; P5.0-P5.3 (output)&lt;/div&gt;&lt;div style=&quot;text-align: left;&quot;&gt;&lt;br&gt;&lt;/div&gt;&lt;div style=&quot;text-align: left;&quot;&gt;&lt;u&gt;RGB LED (OUT):&lt;/u&gt;&lt;/div&gt;&lt;div style=&quot;text-align: left;&quot;&gt;&lt;br&gt;&lt;/div&gt;&lt;div style=&quot;text-align: left;&quot;&gt;P1.5-&amp;gt; RED&lt;/div&gt;&lt;div style=&quot;text-align: left;&quot;&gt;P1.6-&amp;gt;GREEN&lt;/div&gt;&lt;div style=&quot;text-align: left;&quot;&gt;P1.7-&amp;gt;BLUE&lt;/div&gt;&lt;div style=&quot;text-align: left;&quot;&gt;&lt;br&gt;&lt;/div&gt;&lt;div style=&quot;text-align: left;&quot;&gt;4.1 -&amp;gt; EXIT EARLY&lt;/div&gt;&lt;div style=&quot;text-align: left;&quot;&gt;&lt;br&gt;&lt;/div&gt;" style="shape=document;whiteSpace=wrap;html=1;boundedLbl=1;size=0.05968792607180688;" parent="1" vertex="1">
          <mxGeometry x="423" y="67" width="214" height="263" as="geometry" />
        </mxCell>
        <mxCell id="3BsK45Nny69kr6Jffx9H-3" value="" style="edgeStyle=orthogonalEdgeStyle;rounded=0;orthogonalLoop=1;jettySize=auto;html=1;" edge="1" parent="1" source="3BsK45Nny69kr6Jffx9H-1" target="3BsK45Nny69kr6Jffx9H-2">
          <mxGeometry relative="1" as="geometry" />
        </mxCell>
        <mxCell id="3BsK45Nny69kr6Jffx9H-1" value="Main" style="strokeWidth=2;html=1;shape=mxgraph.flowchart.terminator;whiteSpace=wrap;fillColor=none;fontSize=16;" vertex="1" parent="1">
          <mxGeometry x="962" y="85" width="120" height="60" as="geometry" />
        </mxCell>
        <mxCell id="3BsK45Nny69kr6Jffx9H-23" value="" style="edgeStyle=orthogonalEdgeStyle;rounded=0;orthogonalLoop=1;jettySize=auto;html=1;" edge="1" parent="1" source="3BsK45Nny69kr6Jffx9H-2" target="3BsK45Nny69kr6Jffx9H-4">
          <mxGeometry relative="1" as="geometry" />
        </mxCell>
        <mxCell id="3BsK45Nny69kr6Jffx9H-2" value="DISPLAY (KNOW MORE ABOUT SPAIN)&lt;div&gt;PRESS 1 TO START&lt;/div&gt;" style="whiteSpace=wrap;html=1;" vertex="1" parent="1">
          <mxGeometry x="889.5" y="187" width="265" height="40" as="geometry" />
        </mxCell>
        <mxCell id="3BsK45Nny69kr6Jffx9H-25" style="edgeStyle=orthogonalEdgeStyle;rounded=0;orthogonalLoop=1;jettySize=auto;html=1;entryX=0.5;entryY=0;entryDx=0;entryDy=0;" edge="1" parent="1" source="3BsK45Nny69kr6Jffx9H-4" target="3BsK45Nny69kr6Jffx9H-24">
          <mxGeometry relative="1" as="geometry">
            <Array as="points">
              <mxPoint x="847" y="310" />
              <mxPoint x="847" y="432" />
            </Array>
          </mxGeometry>
        </mxCell>
        <mxCell id="3BsK45Nny69kr6Jffx9H-26" value="FALSE" style="edgeLabel;html=1;align=center;verticalAlign=middle;resizable=0;points=[];" vertex="1" connectable="0" parent="3BsK45Nny69kr6Jffx9H-25">
          <mxGeometry x="0.0949" y="-1" relative="1" as="geometry">
            <mxPoint as="offset" />
          </mxGeometry>
        </mxCell>
        <mxCell id="3BsK45Nny69kr6Jffx9H-29" style="edgeStyle=orthogonalEdgeStyle;rounded=0;orthogonalLoop=1;jettySize=auto;html=1;entryX=0.5;entryY=0;entryDx=0;entryDy=0;" edge="1" parent="1" source="3BsK45Nny69kr6Jffx9H-4" target="3BsK45Nny69kr6Jffx9H-27">
          <mxGeometry relative="1" as="geometry">
            <Array as="points">
              <mxPoint x="1200" y="310" />
            </Array>
          </mxGeometry>
        </mxCell>
        <mxCell id="3BsK45Nny69kr6Jffx9H-30" value="TRUE" style="edgeLabel;html=1;align=center;verticalAlign=middle;resizable=0;points=[];" vertex="1" connectable="0" parent="3BsK45Nny69kr6Jffx9H-29">
          <mxGeometry x="0.2154" y="-1" relative="1" as="geometry">
            <mxPoint as="offset" />
          </mxGeometry>
        </mxCell>
        <mxCell id="3BsK45Nny69kr6Jffx9H-4" value="if (read_keypad() == 1)" style="rhombus;whiteSpace=wrap;html=1;" vertex="1" parent="1">
          <mxGeometry x="904" y="260" width="236" height="100" as="geometry" />
        </mxCell>
        <mxCell id="3BsK45Nny69kr6Jffx9H-177" style="edgeStyle=orthogonalEdgeStyle;rounded=0;orthogonalLoop=1;jettySize=auto;html=1;" edge="1" parent="1">
          <mxGeometry relative="1" as="geometry">
            <mxPoint x="1022" y="240" as="targetPoint" />
            <mxPoint x="721" y="451.01010101010115" as="sourcePoint" />
            <Array as="points">
              <mxPoint x="700" y="451" />
              <mxPoint x="700" y="241" />
              <mxPoint x="1015" y="241" />
              <mxPoint x="1015" y="240" />
            </Array>
          </mxGeometry>
        </mxCell>
        <mxCell id="3BsK45Nny69kr6Jffx9H-24" value="DISPLAY (PRESS 1 PLEASE)" style="whiteSpace=wrap;html=1;" vertex="1" parent="1">
          <mxGeometry x="714" y="432" width="265" height="40" as="geometry" />
        </mxCell>
        <mxCell id="3BsK45Nny69kr6Jffx9H-32" value="" style="edgeStyle=orthogonalEdgeStyle;rounded=0;orthogonalLoop=1;jettySize=auto;html=1;" edge="1" parent="1" source="3BsK45Nny69kr6Jffx9H-27" target="3BsK45Nny69kr6Jffx9H-31">
          <mxGeometry relative="1" as="geometry" />
        </mxCell>
        <mxCell id="3BsK45Nny69kr6Jffx9H-27" value="DISPLAY (TO CHOOSE TOPIC PRESS 1)" style="whiteSpace=wrap;html=1;" vertex="1" parent="1">
          <mxGeometry x="1068" y="432" width="265" height="40" as="geometry" />
        </mxCell>
        <mxCell id="3BsK45Nny69kr6Jffx9H-34" value="" style="edgeStyle=orthogonalEdgeStyle;rounded=0;orthogonalLoop=1;jettySize=auto;html=1;" edge="1" parent="1" source="3BsK45Nny69kr6Jffx9H-31" target="3BsK45Nny69kr6Jffx9H-33">
          <mxGeometry relative="1" as="geometry" />
        </mxCell>
        <mxCell id="3BsK45Nny69kr6Jffx9H-31" value="if (read_keypad() == 1)" style="rhombus;whiteSpace=wrap;html=1;" vertex="1" parent="1">
          <mxGeometry x="1082.5" y="497" width="236" height="100" as="geometry" />
        </mxCell>
        <mxCell id="3BsK45Nny69kr6Jffx9H-38" value="" style="edgeStyle=orthogonalEdgeStyle;rounded=0;orthogonalLoop=1;jettySize=auto;html=1;" edge="1" parent="1" source="3BsK45Nny69kr6Jffx9H-33" target="3BsK45Nny69kr6Jffx9H-37">
          <mxGeometry relative="1" as="geometry" />
        </mxCell>
        <mxCell id="3BsK45Nny69kr6Jffx9H-33" value="DISPLAY (1. CULTURE&amp;nbsp; &amp;nbsp; &amp;nbsp; &amp;nbsp; &amp;nbsp; &amp;nbsp; 2. FOOD&lt;div&gt;&lt;span style=&quot;background-color: transparent; color: light-dark(rgb(0, 0, 0), rgb(255, 255, 255));&quot;&gt;&amp;nbsp; &amp;nbsp; &amp;nbsp; &amp;nbsp; &amp;nbsp; &amp;nbsp; &amp;nbsp; &amp;nbsp; &amp;nbsp;3. HISTORY&amp;nbsp; &amp;nbsp; &amp;nbsp; &amp;nbsp; &amp;nbsp; &amp;nbsp; &amp;nbsp;4. NATURE&lt;/span&gt;&lt;/div&gt;" style="whiteSpace=wrap;html=1;align=left;" vertex="1" parent="1">
          <mxGeometry x="1068" y="622" width="265" height="40" as="geometry" />
        </mxCell>
        <mxCell id="3BsK45Nny69kr6Jffx9H-95" value="" style="edgeStyle=orthogonalEdgeStyle;rounded=0;orthogonalLoop=1;jettySize=auto;html=1;" edge="1" parent="1">
          <mxGeometry relative="1" as="geometry">
            <mxPoint x="1198.5000000000002" y="739" as="sourcePoint" />
            <mxPoint x="1200.5" y="783.216814159292" as="targetPoint" />
            <Array as="points">
              <mxPoint x="1201" y="739" />
              <mxPoint x="1201" y="761" />
              <mxPoint x="1201" y="761" />
            </Array>
          </mxGeometry>
        </mxCell>
        <mxCell id="3BsK45Nny69kr6Jffx9H-37" value="&lt;div&gt;&lt;span style=&quot;background-color: transparent; color: light-dark(rgb(0, 0, 0), rgb(255, 255, 255));&quot;&gt;&amp;nbsp; &amp;nbsp; &amp;nbsp; &amp;nbsp;SWITCH (choose)&lt;/span&gt;&lt;/div&gt;" style="whiteSpace=wrap;html=1;align=center;" vertex="1" parent="1">
          <mxGeometry x="1068" y="699" width="265" height="40" as="geometry" />
        </mxCell>
        <mxCell id="3BsK45Nny69kr6Jffx9H-101" value="" style="edgeStyle=orthogonalEdgeStyle;rounded=0;orthogonalLoop=1;jettySize=auto;html=1;" edge="1" parent="1" source="3BsK45Nny69kr6Jffx9H-45" target="3BsK45Nny69kr6Jffx9H-100">
          <mxGeometry relative="1" as="geometry" />
        </mxCell>
        <mxCell id="3BsK45Nny69kr6Jffx9H-148" style="edgeStyle=orthogonalEdgeStyle;rounded=0;orthogonalLoop=1;jettySize=auto;html=1;entryX=0.5;entryY=0;entryDx=0;entryDy=0;" edge="1" parent="1" source="3BsK45Nny69kr6Jffx9H-45" target="3BsK45Nny69kr6Jffx9H-58">
          <mxGeometry relative="1" as="geometry" />
        </mxCell>
        <mxCell id="3BsK45Nny69kr6Jffx9H-260" value="FALSE" style="edgeLabel;html=1;align=center;verticalAlign=middle;resizable=0;points=[];" vertex="1" connectable="0" parent="3BsK45Nny69kr6Jffx9H-148">
          <mxGeometry x="-0.029" y="2" relative="1" as="geometry">
            <mxPoint as="offset" />
          </mxGeometry>
        </mxCell>
        <mxCell id="3BsK45Nny69kr6Jffx9H-45" value="Case &#39;2&#39;" style="rhombus;whiteSpace=wrap;html=1;" vertex="1" parent="1">
          <mxGeometry x="1148" y="1200" width="113" height="49" as="geometry" />
        </mxCell>
        <mxCell id="3BsK45Nny69kr6Jffx9H-104" value="" style="edgeStyle=orthogonalEdgeStyle;rounded=0;orthogonalLoop=1;jettySize=auto;html=1;" edge="1" parent="1" source="3BsK45Nny69kr6Jffx9H-58" target="3BsK45Nny69kr6Jffx9H-102">
          <mxGeometry relative="1" as="geometry" />
        </mxCell>
        <mxCell id="3BsK45Nny69kr6Jffx9H-174" style="edgeStyle=orthogonalEdgeStyle;rounded=0;orthogonalLoop=1;jettySize=auto;html=1;entryX=0.5;entryY=0;entryDx=0;entryDy=0;" edge="1" parent="1" source="3BsK45Nny69kr6Jffx9H-58" target="3BsK45Nny69kr6Jffx9H-70">
          <mxGeometry relative="1" as="geometry" />
        </mxCell>
        <mxCell id="3BsK45Nny69kr6Jffx9H-261" value="FALSE" style="edgeLabel;html=1;align=center;verticalAlign=middle;resizable=0;points=[];" vertex="1" connectable="0" parent="3BsK45Nny69kr6Jffx9H-174">
          <mxGeometry x="-0.1614" y="-1" relative="1" as="geometry">
            <mxPoint as="offset" />
          </mxGeometry>
        </mxCell>
        <mxCell id="3BsK45Nny69kr6Jffx9H-58" value="Case &#39;3&#39;" style="rhombus;whiteSpace=wrap;html=1;" vertex="1" parent="1">
          <mxGeometry x="1154.5" y="1627" width="113" height="49" as="geometry" />
        </mxCell>
        <mxCell id="3BsK45Nny69kr6Jffx9H-175" value="" style="edgeStyle=orthogonalEdgeStyle;rounded=0;orthogonalLoop=1;jettySize=auto;html=1;" edge="1" parent="1" source="3BsK45Nny69kr6Jffx9H-70" target="3BsK45Nny69kr6Jffx9H-105">
          <mxGeometry relative="1" as="geometry" />
        </mxCell>
        <mxCell id="3BsK45Nny69kr6Jffx9H-264" value="" style="edgeStyle=orthogonalEdgeStyle;rounded=0;orthogonalLoop=1;jettySize=auto;html=1;" edge="1" parent="1" source="3BsK45Nny69kr6Jffx9H-70">
          <mxGeometry relative="1" as="geometry">
            <mxPoint x="1214.5238095238092" y="2105.5" as="targetPoint" />
          </mxGeometry>
        </mxCell>
        <mxCell id="3BsK45Nny69kr6Jffx9H-266" value="FALSE" style="edgeLabel;html=1;align=center;verticalAlign=middle;resizable=0;points=[];" vertex="1" connectable="0" parent="3BsK45Nny69kr6Jffx9H-264">
          <mxGeometry x="-0.245" y="3" relative="1" as="geometry">
            <mxPoint as="offset" />
          </mxGeometry>
        </mxCell>
        <mxCell id="3BsK45Nny69kr6Jffx9H-70" value="Case &#39;4&#39;" style="rhombus;whiteSpace=wrap;html=1;" vertex="1" parent="1">
          <mxGeometry x="1163" y="1982" width="113" height="49" as="geometry" />
        </mxCell>
        <mxCell id="3BsK45Nny69kr6Jffx9H-99" value="" style="edgeStyle=orthogonalEdgeStyle;rounded=0;orthogonalLoop=1;jettySize=auto;html=1;" edge="1" parent="1" source="3BsK45Nny69kr6Jffx9H-84" target="3BsK45Nny69kr6Jffx9H-98">
          <mxGeometry relative="1" as="geometry" />
        </mxCell>
        <mxCell id="3BsK45Nny69kr6Jffx9H-134" style="edgeStyle=orthogonalEdgeStyle;rounded=0;orthogonalLoop=1;jettySize=auto;html=1;entryX=0.5;entryY=0;entryDx=0;entryDy=0;" edge="1" parent="1" source="3BsK45Nny69kr6Jffx9H-84" target="3BsK45Nny69kr6Jffx9H-45">
          <mxGeometry relative="1" as="geometry" />
        </mxCell>
        <mxCell id="3BsK45Nny69kr6Jffx9H-259" value="FALSE" style="edgeLabel;html=1;align=center;verticalAlign=middle;resizable=0;points=[];" vertex="1" connectable="0" parent="3BsK45Nny69kr6Jffx9H-134">
          <mxGeometry x="-0.0777" y="5" relative="1" as="geometry">
            <mxPoint y="-1" as="offset" />
          </mxGeometry>
        </mxCell>
        <mxCell id="3BsK45Nny69kr6Jffx9H-84" value="Case &#39;1&#39;" style="rhombus;whiteSpace=wrap;html=1;" vertex="1" parent="1">
          <mxGeometry x="1143" y="783" width="113" height="49" as="geometry" />
        </mxCell>
        <mxCell id="3BsK45Nny69kr6Jffx9H-98" value="DISPLAY (READ THE QUESTION, PRESS 1 AND THE POSSIBLE ANSWERS WILL DISPLAY. AFTER THAT CHOOSE YOUR ANSWER PRESSING BETWEEN 1 AND 4)" style="whiteSpace=wrap;html=1;align=left;" vertex="1" parent="1">
          <mxGeometry x="1288" y="772" width="275" height="71" as="geometry" />
        </mxCell>
        <mxCell id="3BsK45Nny69kr6Jffx9H-100" value="DISPLAY (READ THE QUESTION, PRESS 1 AND THE POSSIBLE ANSWERS WILL DISPLAY. AFTER THAT CHOOSE YOUR ANSWER PRESSING BETWEEN 1 AND 4)" style="whiteSpace=wrap;html=1;align=left;" vertex="1" parent="1">
          <mxGeometry x="1296" y="1189" width="275" height="71" as="geometry" />
        </mxCell>
        <mxCell id="3BsK45Nny69kr6Jffx9H-102" value="DISPLAY (READ THE QUESTION, PRESS 1 AND THE POSSIBLE ANSWERS WILL DISPLAY. AFTER THAT CHOOSE YOUR ANSWER PRESSING BETWEEN 1 AND 4)" style="whiteSpace=wrap;html=1;align=left;" vertex="1" parent="1">
          <mxGeometry x="1299.5" y="1616" width="275" height="71" as="geometry" />
        </mxCell>
        <mxCell id="3BsK45Nny69kr6Jffx9H-105" value="DISPLAY (READ THE QUESTION, PRESS 1 AND THE POSSIBLE ANSWERS WILL DISPLAY. AFTER THAT CHOOSE YOUR ANSWER PRESSING BETWEEN 1 AND 4)" style="whiteSpace=wrap;html=1;align=left;" vertex="1" parent="1">
          <mxGeometry x="1315" y="1975" width="275" height="71" as="geometry" />
        </mxCell>
        <mxCell id="3BsK45Nny69kr6Jffx9H-149" value="" style="edgeStyle=orthogonalEdgeStyle;rounded=0;orthogonalLoop=1;jettySize=auto;html=1;" edge="1" parent="1" source="3BsK45Nny69kr6Jffx9H-150" target="3BsK45Nny69kr6Jffx9H-155">
          <mxGeometry relative="1" as="geometry" />
        </mxCell>
        <mxCell id="3BsK45Nny69kr6Jffx9H-150" value="GO THROUGH 5 QUESTIONS" style="whiteSpace=wrap;html=1;align=center;" vertex="1" parent="1">
          <mxGeometry x="1771" y="1619" width="275" height="71" as="geometry" />
        </mxCell>
        <mxCell id="3BsK45Nny69kr6Jffx9H-151" style="edgeStyle=orthogonalEdgeStyle;rounded=0;orthogonalLoop=1;jettySize=auto;html=1;entryX=0;entryY=0.25;entryDx=0;entryDy=0;" edge="1" parent="1" source="3BsK45Nny69kr6Jffx9H-155" target="3BsK45Nny69kr6Jffx9H-157">
          <mxGeometry relative="1" as="geometry">
            <Array as="points">
              <mxPoint x="2200" y="1537" />
              <mxPoint x="2266" y="1537" />
            </Array>
          </mxGeometry>
        </mxCell>
        <mxCell id="3BsK45Nny69kr6Jffx9H-152" value="TRUE" style="edgeLabel;html=1;align=center;verticalAlign=middle;resizable=0;points=[];" vertex="1" connectable="0" parent="3BsK45Nny69kr6Jffx9H-151">
          <mxGeometry x="-0.5767" y="3" relative="1" as="geometry">
            <mxPoint as="offset" />
          </mxGeometry>
        </mxCell>
        <mxCell id="3BsK45Nny69kr6Jffx9H-153" style="edgeStyle=orthogonalEdgeStyle;rounded=0;orthogonalLoop=1;jettySize=auto;html=1;entryX=0;entryY=0.25;entryDx=0;entryDy=0;" edge="1" parent="1" source="3BsK45Nny69kr6Jffx9H-155" target="3BsK45Nny69kr6Jffx9H-160">
          <mxGeometry relative="1" as="geometry">
            <Array as="points">
              <mxPoint x="2200" y="1771" />
              <mxPoint x="2288" y="1771" />
            </Array>
          </mxGeometry>
        </mxCell>
        <mxCell id="3BsK45Nny69kr6Jffx9H-154" value="FALSE" style="edgeLabel;html=1;align=center;verticalAlign=middle;resizable=0;points=[];" vertex="1" connectable="0" parent="3BsK45Nny69kr6Jffx9H-153">
          <mxGeometry x="-0.7622" y="-4" relative="1" as="geometry">
            <mxPoint y="1" as="offset" />
          </mxGeometry>
        </mxCell>
        <mxCell id="3BsK45Nny69kr6Jffx9H-155" value="if (Q1 == CORRECT)" style="rhombus;whiteSpace=wrap;html=1;" vertex="1" parent="1">
          <mxGeometry x="2082" y="1604.5" width="236" height="100" as="geometry" />
        </mxCell>
        <mxCell id="3BsK45Nny69kr6Jffx9H-190" style="edgeStyle=orthogonalEdgeStyle;rounded=0;orthogonalLoop=1;jettySize=auto;html=1;" edge="1" parent="1" source="3BsK45Nny69kr6Jffx9H-157">
          <mxGeometry relative="1" as="geometry">
            <mxPoint x="1588" y="1648" as="targetPoint" />
            <Array as="points">
              <mxPoint x="2438" y="1544" />
              <mxPoint x="2438" y="1473" />
              <mxPoint x="1588" y="1473" />
              <mxPoint x="1588" y="1592" />
            </Array>
          </mxGeometry>
        </mxCell>
        <mxCell id="3BsK45Nny69kr6Jffx9H-157" value="send slave green" style="shape=parallelogram;perimeter=parallelogramPerimeter;whiteSpace=wrap;html=1;fixedSize=1;" vertex="1" parent="1">
          <mxGeometry x="2274" y="1525" width="150" height="40" as="geometry" />
        </mxCell>
        <mxCell id="3BsK45Nny69kr6Jffx9H-191" style="edgeStyle=orthogonalEdgeStyle;rounded=0;orthogonalLoop=1;jettySize=auto;html=1;entryX=0.5;entryY=1;entryDx=0;entryDy=0;" edge="1" parent="1" source="3BsK45Nny69kr6Jffx9H-160">
          <mxGeometry relative="1" as="geometry">
            <mxPoint x="2371.990740740741" y="1740.5185185185182" as="sourcePoint" />
            <mxPoint x="1588" y="1651" as="targetPoint" />
            <Array as="points">
              <mxPoint x="2472" y="1779" />
              <mxPoint x="2472" y="1818" />
              <mxPoint x="1588" y="1818" />
            </Array>
          </mxGeometry>
        </mxCell>
        <mxCell id="3BsK45Nny69kr6Jffx9H-160" value="send slave red" style="shape=parallelogram;perimeter=parallelogramPerimeter;whiteSpace=wrap;html=1;fixedSize=1;" vertex="1" parent="1">
          <mxGeometry x="2293" y="1758.5" width="150" height="40" as="geometry" />
        </mxCell>
        <mxCell id="3BsK45Nny69kr6Jffx9H-189" value="" style="edgeStyle=orthogonalEdgeStyle;rounded=0;orthogonalLoop=1;jettySize=auto;html=1;" edge="1" parent="1" source="3BsK45Nny69kr6Jffx9H-102" target="3BsK45Nny69kr6Jffx9H-188">
          <mxGeometry relative="1" as="geometry">
            <mxPoint x="1575" y="1652" as="sourcePoint" />
            <mxPoint x="1736" y="1654" as="targetPoint" />
          </mxGeometry>
        </mxCell>
        <mxCell id="3BsK45Nny69kr6Jffx9H-199" value="" style="edgeStyle=orthogonalEdgeStyle;rounded=0;orthogonalLoop=1;jettySize=auto;html=1;" edge="1" parent="1" source="3BsK45Nny69kr6Jffx9H-188" target="3BsK45Nny69kr6Jffx9H-150">
          <mxGeometry relative="1" as="geometry" />
        </mxCell>
        <mxCell id="3BsK45Nny69kr6Jffx9H-200" value="FALSE" style="edgeLabel;html=1;align=center;verticalAlign=middle;resizable=0;points=[];" vertex="1" connectable="0" parent="3BsK45Nny69kr6Jffx9H-199">
          <mxGeometry x="-0.1027" y="1" relative="1" as="geometry">
            <mxPoint as="offset" />
          </mxGeometry>
        </mxCell>
        <mxCell id="3BsK45Nny69kr6Jffx9H-203" value="" style="edgeStyle=orthogonalEdgeStyle;rounded=0;orthogonalLoop=1;jettySize=auto;html=1;" edge="1" parent="1" source="3BsK45Nny69kr6Jffx9H-188" target="3BsK45Nny69kr6Jffx9H-202">
          <mxGeometry relative="1" as="geometry" />
        </mxCell>
        <mxCell id="3BsK45Nny69kr6Jffx9H-204" value="TRUE" style="edgeLabel;html=1;align=center;verticalAlign=middle;resizable=0;points=[];" vertex="1" connectable="0" parent="3BsK45Nny69kr6Jffx9H-203">
          <mxGeometry x="-0.5506" y="-1" relative="1" as="geometry">
            <mxPoint as="offset" />
          </mxGeometry>
        </mxCell>
        <mxCell id="3BsK45Nny69kr6Jffx9H-188" value="5 qs" style="rhombus;whiteSpace=wrap;html=1;" vertex="1" parent="1">
          <mxGeometry x="1630" y="1611.5" width="80" height="80" as="geometry" />
        </mxCell>
        <mxCell id="3BsK45Nny69kr6Jffx9H-202" value="RETURN" style="strokeWidth=2;html=1;shape=mxgraph.flowchart.terminator;whiteSpace=wrap;fillColor=none;fontSize=16;" vertex="1" parent="1">
          <mxGeometry x="1610" y="1726" width="120" height="54" as="geometry" />
        </mxCell>
        <mxCell id="3BsK45Nny69kr6Jffx9H-205" value="" style="edgeStyle=orthogonalEdgeStyle;rounded=0;orthogonalLoop=1;jettySize=auto;html=1;" edge="1" parent="1" source="3BsK45Nny69kr6Jffx9H-206" target="3BsK45Nny69kr6Jffx9H-211">
          <mxGeometry relative="1" as="geometry" />
        </mxCell>
        <mxCell id="3BsK45Nny69kr6Jffx9H-206" value="GO THROUGH 5 QUESTIONS" style="whiteSpace=wrap;html=1;align=center;" vertex="1" parent="1">
          <mxGeometry x="1789" y="1980" width="275" height="71" as="geometry" />
        </mxCell>
        <mxCell id="3BsK45Nny69kr6Jffx9H-207" style="edgeStyle=orthogonalEdgeStyle;rounded=0;orthogonalLoop=1;jettySize=auto;html=1;entryX=0;entryY=0.25;entryDx=0;entryDy=0;" edge="1" parent="1" source="3BsK45Nny69kr6Jffx9H-211" target="3BsK45Nny69kr6Jffx9H-213">
          <mxGeometry relative="1" as="geometry">
            <Array as="points">
              <mxPoint x="2218" y="1898" />
              <mxPoint x="2284" y="1898" />
            </Array>
          </mxGeometry>
        </mxCell>
        <mxCell id="3BsK45Nny69kr6Jffx9H-208" value="TRUE" style="edgeLabel;html=1;align=center;verticalAlign=middle;resizable=0;points=[];" vertex="1" connectable="0" parent="3BsK45Nny69kr6Jffx9H-207">
          <mxGeometry x="-0.5767" y="3" relative="1" as="geometry">
            <mxPoint as="offset" />
          </mxGeometry>
        </mxCell>
        <mxCell id="3BsK45Nny69kr6Jffx9H-209" style="edgeStyle=orthogonalEdgeStyle;rounded=0;orthogonalLoop=1;jettySize=auto;html=1;entryX=0;entryY=0.25;entryDx=0;entryDy=0;" edge="1" parent="1" source="3BsK45Nny69kr6Jffx9H-211" target="3BsK45Nny69kr6Jffx9H-215">
          <mxGeometry relative="1" as="geometry">
            <Array as="points">
              <mxPoint x="2218" y="2132" />
              <mxPoint x="2306" y="2132" />
            </Array>
          </mxGeometry>
        </mxCell>
        <mxCell id="3BsK45Nny69kr6Jffx9H-210" value="FALSE" style="edgeLabel;html=1;align=center;verticalAlign=middle;resizable=0;points=[];" vertex="1" connectable="0" parent="3BsK45Nny69kr6Jffx9H-209">
          <mxGeometry x="-0.7622" y="-4" relative="1" as="geometry">
            <mxPoint y="1" as="offset" />
          </mxGeometry>
        </mxCell>
        <mxCell id="3BsK45Nny69kr6Jffx9H-211" value="if (Q1 == CORRECT)" style="rhombus;whiteSpace=wrap;html=1;" vertex="1" parent="1">
          <mxGeometry x="2100" y="1965.5" width="236" height="100" as="geometry" />
        </mxCell>
        <mxCell id="3BsK45Nny69kr6Jffx9H-212" style="edgeStyle=orthogonalEdgeStyle;rounded=0;orthogonalLoop=1;jettySize=auto;html=1;" edge="1" parent="1" source="3BsK45Nny69kr6Jffx9H-213">
          <mxGeometry relative="1" as="geometry">
            <mxPoint x="1606" y="2009" as="targetPoint" />
            <Array as="points">
              <mxPoint x="2456" y="1905" />
              <mxPoint x="2456" y="1834" />
              <mxPoint x="1606" y="1834" />
              <mxPoint x="1606" y="1953" />
            </Array>
          </mxGeometry>
        </mxCell>
        <mxCell id="3BsK45Nny69kr6Jffx9H-213" value="send slave green" style="shape=parallelogram;perimeter=parallelogramPerimeter;whiteSpace=wrap;html=1;fixedSize=1;" vertex="1" parent="1">
          <mxGeometry x="2292" y="1886" width="150" height="40" as="geometry" />
        </mxCell>
        <mxCell id="3BsK45Nny69kr6Jffx9H-214" style="edgeStyle=orthogonalEdgeStyle;rounded=0;orthogonalLoop=1;jettySize=auto;html=1;entryX=0.5;entryY=1;entryDx=0;entryDy=0;" edge="1" parent="1" source="3BsK45Nny69kr6Jffx9H-215">
          <mxGeometry relative="1" as="geometry">
            <mxPoint x="2389.990740740741" y="2101.5185185185182" as="sourcePoint" />
            <mxPoint x="1606" y="2012" as="targetPoint" />
            <Array as="points">
              <mxPoint x="2490" y="2140" />
              <mxPoint x="2490" y="2179" />
              <mxPoint x="1606" y="2179" />
            </Array>
          </mxGeometry>
        </mxCell>
        <mxCell id="3BsK45Nny69kr6Jffx9H-215" value="send slave red" style="shape=parallelogram;perimeter=parallelogramPerimeter;whiteSpace=wrap;html=1;fixedSize=1;" vertex="1" parent="1">
          <mxGeometry x="2311" y="2119.5" width="150" height="40" as="geometry" />
        </mxCell>
        <mxCell id="3BsK45Nny69kr6Jffx9H-216" value="" style="edgeStyle=orthogonalEdgeStyle;rounded=0;orthogonalLoop=1;jettySize=auto;html=1;" edge="1" parent="1" target="3BsK45Nny69kr6Jffx9H-221">
          <mxGeometry relative="1" as="geometry">
            <mxPoint x="1593" y="2013" as="sourcePoint" />
            <mxPoint x="1754" y="2015" as="targetPoint" />
          </mxGeometry>
        </mxCell>
        <mxCell id="3BsK45Nny69kr6Jffx9H-217" value="" style="edgeStyle=orthogonalEdgeStyle;rounded=0;orthogonalLoop=1;jettySize=auto;html=1;" edge="1" parent="1" source="3BsK45Nny69kr6Jffx9H-221" target="3BsK45Nny69kr6Jffx9H-206">
          <mxGeometry relative="1" as="geometry" />
        </mxCell>
        <mxCell id="3BsK45Nny69kr6Jffx9H-218" value="FALSE" style="edgeLabel;html=1;align=center;verticalAlign=middle;resizable=0;points=[];" vertex="1" connectable="0" parent="3BsK45Nny69kr6Jffx9H-217">
          <mxGeometry x="-0.1027" y="1" relative="1" as="geometry">
            <mxPoint as="offset" />
          </mxGeometry>
        </mxCell>
        <mxCell id="3BsK45Nny69kr6Jffx9H-219" value="" style="edgeStyle=orthogonalEdgeStyle;rounded=0;orthogonalLoop=1;jettySize=auto;html=1;" edge="1" parent="1" source="3BsK45Nny69kr6Jffx9H-221" target="3BsK45Nny69kr6Jffx9H-222">
          <mxGeometry relative="1" as="geometry" />
        </mxCell>
        <mxCell id="3BsK45Nny69kr6Jffx9H-220" value="TRUE" style="edgeLabel;html=1;align=center;verticalAlign=middle;resizable=0;points=[];" vertex="1" connectable="0" parent="3BsK45Nny69kr6Jffx9H-219">
          <mxGeometry x="-0.5506" y="-1" relative="1" as="geometry">
            <mxPoint as="offset" />
          </mxGeometry>
        </mxCell>
        <mxCell id="3BsK45Nny69kr6Jffx9H-221" value="5 qs" style="rhombus;whiteSpace=wrap;html=1;" vertex="1" parent="1">
          <mxGeometry x="1648" y="1972.5" width="80" height="80" as="geometry" />
        </mxCell>
        <mxCell id="3BsK45Nny69kr6Jffx9H-222" value="RETURN" style="strokeWidth=2;html=1;shape=mxgraph.flowchart.terminator;whiteSpace=wrap;fillColor=none;fontSize=16;" vertex="1" parent="1">
          <mxGeometry x="1628" y="2087" width="120" height="54" as="geometry" />
        </mxCell>
        <mxCell id="3BsK45Nny69kr6Jffx9H-223" value="" style="edgeStyle=orthogonalEdgeStyle;rounded=0;orthogonalLoop=1;jettySize=auto;html=1;" edge="1" parent="1" source="3BsK45Nny69kr6Jffx9H-224" target="3BsK45Nny69kr6Jffx9H-229">
          <mxGeometry relative="1" as="geometry" />
        </mxCell>
        <mxCell id="3BsK45Nny69kr6Jffx9H-224" value="GO THROUGH 5 QUESTIONS" style="whiteSpace=wrap;html=1;align=center;" vertex="1" parent="1">
          <mxGeometry x="1770.5" y="1198" width="275" height="71" as="geometry" />
        </mxCell>
        <mxCell id="3BsK45Nny69kr6Jffx9H-225" style="edgeStyle=orthogonalEdgeStyle;rounded=0;orthogonalLoop=1;jettySize=auto;html=1;entryX=0;entryY=0.25;entryDx=0;entryDy=0;" edge="1" parent="1" source="3BsK45Nny69kr6Jffx9H-229" target="3BsK45Nny69kr6Jffx9H-231">
          <mxGeometry relative="1" as="geometry">
            <Array as="points">
              <mxPoint x="2199.5" y="1116" />
              <mxPoint x="2265.5" y="1116" />
            </Array>
          </mxGeometry>
        </mxCell>
        <mxCell id="3BsK45Nny69kr6Jffx9H-226" value="TRUE" style="edgeLabel;html=1;align=center;verticalAlign=middle;resizable=0;points=[];" vertex="1" connectable="0" parent="3BsK45Nny69kr6Jffx9H-225">
          <mxGeometry x="-0.5767" y="3" relative="1" as="geometry">
            <mxPoint as="offset" />
          </mxGeometry>
        </mxCell>
        <mxCell id="3BsK45Nny69kr6Jffx9H-227" style="edgeStyle=orthogonalEdgeStyle;rounded=0;orthogonalLoop=1;jettySize=auto;html=1;entryX=0;entryY=0.25;entryDx=0;entryDy=0;" edge="1" parent="1" source="3BsK45Nny69kr6Jffx9H-229" target="3BsK45Nny69kr6Jffx9H-233">
          <mxGeometry relative="1" as="geometry">
            <Array as="points">
              <mxPoint x="2199.5" y="1350" />
              <mxPoint x="2287.5" y="1350" />
            </Array>
          </mxGeometry>
        </mxCell>
        <mxCell id="3BsK45Nny69kr6Jffx9H-228" value="FALSE" style="edgeLabel;html=1;align=center;verticalAlign=middle;resizable=0;points=[];" vertex="1" connectable="0" parent="3BsK45Nny69kr6Jffx9H-227">
          <mxGeometry x="-0.7622" y="-4" relative="1" as="geometry">
            <mxPoint y="1" as="offset" />
          </mxGeometry>
        </mxCell>
        <mxCell id="3BsK45Nny69kr6Jffx9H-229" value="if (Q1 == CORRECT)" style="rhombus;whiteSpace=wrap;html=1;" vertex="1" parent="1">
          <mxGeometry x="2081.5" y="1183.5" width="236" height="100" as="geometry" />
        </mxCell>
        <mxCell id="3BsK45Nny69kr6Jffx9H-230" style="edgeStyle=orthogonalEdgeStyle;rounded=0;orthogonalLoop=1;jettySize=auto;html=1;" edge="1" parent="1" source="3BsK45Nny69kr6Jffx9H-231">
          <mxGeometry relative="1" as="geometry">
            <mxPoint x="1587.5" y="1227" as="targetPoint" />
            <Array as="points">
              <mxPoint x="2437.5" y="1123" />
              <mxPoint x="2437.5" y="1052" />
              <mxPoint x="1587.5" y="1052" />
              <mxPoint x="1587.5" y="1171" />
            </Array>
          </mxGeometry>
        </mxCell>
        <mxCell id="3BsK45Nny69kr6Jffx9H-231" value="send slave green" style="shape=parallelogram;perimeter=parallelogramPerimeter;whiteSpace=wrap;html=1;fixedSize=1;" vertex="1" parent="1">
          <mxGeometry x="2273.5" y="1104" width="150" height="40" as="geometry" />
        </mxCell>
        <mxCell id="3BsK45Nny69kr6Jffx9H-232" style="edgeStyle=orthogonalEdgeStyle;rounded=0;orthogonalLoop=1;jettySize=auto;html=1;entryX=0.5;entryY=1;entryDx=0;entryDy=0;" edge="1" parent="1" source="3BsK45Nny69kr6Jffx9H-233">
          <mxGeometry relative="1" as="geometry">
            <mxPoint x="2371.490740740741" y="1319.5185185185182" as="sourcePoint" />
            <mxPoint x="1587.5" y="1230" as="targetPoint" />
            <Array as="points">
              <mxPoint x="2471.5" y="1358" />
              <mxPoint x="2471.5" y="1397" />
              <mxPoint x="1587.5" y="1397" />
            </Array>
          </mxGeometry>
        </mxCell>
        <mxCell id="3BsK45Nny69kr6Jffx9H-233" value="send slave red" style="shape=parallelogram;perimeter=parallelogramPerimeter;whiteSpace=wrap;html=1;fixedSize=1;" vertex="1" parent="1">
          <mxGeometry x="2292.5" y="1337.5" width="150" height="40" as="geometry" />
        </mxCell>
        <mxCell id="3BsK45Nny69kr6Jffx9H-234" value="" style="edgeStyle=orthogonalEdgeStyle;rounded=0;orthogonalLoop=1;jettySize=auto;html=1;" edge="1" parent="1" target="3BsK45Nny69kr6Jffx9H-239">
          <mxGeometry relative="1" as="geometry">
            <mxPoint x="1574.5" y="1231" as="sourcePoint" />
            <mxPoint x="1735.5" y="1233" as="targetPoint" />
          </mxGeometry>
        </mxCell>
        <mxCell id="3BsK45Nny69kr6Jffx9H-235" value="" style="edgeStyle=orthogonalEdgeStyle;rounded=0;orthogonalLoop=1;jettySize=auto;html=1;" edge="1" parent="1" source="3BsK45Nny69kr6Jffx9H-239" target="3BsK45Nny69kr6Jffx9H-224">
          <mxGeometry relative="1" as="geometry" />
        </mxCell>
        <mxCell id="3BsK45Nny69kr6Jffx9H-236" value="FALSE" style="edgeLabel;html=1;align=center;verticalAlign=middle;resizable=0;points=[];" vertex="1" connectable="0" parent="3BsK45Nny69kr6Jffx9H-235">
          <mxGeometry x="-0.1027" y="1" relative="1" as="geometry">
            <mxPoint as="offset" />
          </mxGeometry>
        </mxCell>
        <mxCell id="3BsK45Nny69kr6Jffx9H-237" value="" style="edgeStyle=orthogonalEdgeStyle;rounded=0;orthogonalLoop=1;jettySize=auto;html=1;" edge="1" parent="1" source="3BsK45Nny69kr6Jffx9H-239" target="3BsK45Nny69kr6Jffx9H-240">
          <mxGeometry relative="1" as="geometry" />
        </mxCell>
        <mxCell id="3BsK45Nny69kr6Jffx9H-238" value="TRUE" style="edgeLabel;html=1;align=center;verticalAlign=middle;resizable=0;points=[];" vertex="1" connectable="0" parent="3BsK45Nny69kr6Jffx9H-237">
          <mxGeometry x="-0.5506" y="-1" relative="1" as="geometry">
            <mxPoint as="offset" />
          </mxGeometry>
        </mxCell>
        <mxCell id="3BsK45Nny69kr6Jffx9H-239" value="5 qs" style="rhombus;whiteSpace=wrap;html=1;" vertex="1" parent="1">
          <mxGeometry x="1629.5" y="1190.5" width="80" height="80" as="geometry" />
        </mxCell>
        <mxCell id="3BsK45Nny69kr6Jffx9H-240" value="RETURN" style="strokeWidth=2;html=1;shape=mxgraph.flowchart.terminator;whiteSpace=wrap;fillColor=none;fontSize=16;" vertex="1" parent="1">
          <mxGeometry x="1609.5" y="1305" width="120" height="54" as="geometry" />
        </mxCell>
        <mxCell id="3BsK45Nny69kr6Jffx9H-241" value="" style="edgeStyle=orthogonalEdgeStyle;rounded=0;orthogonalLoop=1;jettySize=auto;html=1;" edge="1" parent="1" source="3BsK45Nny69kr6Jffx9H-242" target="3BsK45Nny69kr6Jffx9H-247">
          <mxGeometry relative="1" as="geometry" />
        </mxCell>
        <mxCell id="3BsK45Nny69kr6Jffx9H-242" value="GO THROUGH 5 QUESTIONS" style="whiteSpace=wrap;html=1;align=center;" vertex="1" parent="1">
          <mxGeometry x="1768" y="781" width="275" height="71" as="geometry" />
        </mxCell>
        <mxCell id="3BsK45Nny69kr6Jffx9H-243" style="edgeStyle=orthogonalEdgeStyle;rounded=0;orthogonalLoop=1;jettySize=auto;html=1;entryX=0;entryY=0.25;entryDx=0;entryDy=0;" edge="1" parent="1" source="3BsK45Nny69kr6Jffx9H-247" target="3BsK45Nny69kr6Jffx9H-249">
          <mxGeometry relative="1" as="geometry">
            <Array as="points">
              <mxPoint x="2197" y="699" />
              <mxPoint x="2263" y="699" />
            </Array>
          </mxGeometry>
        </mxCell>
        <mxCell id="3BsK45Nny69kr6Jffx9H-244" value="TRUE" style="edgeLabel;html=1;align=center;verticalAlign=middle;resizable=0;points=[];" vertex="1" connectable="0" parent="3BsK45Nny69kr6Jffx9H-243">
          <mxGeometry x="-0.5767" y="3" relative="1" as="geometry">
            <mxPoint as="offset" />
          </mxGeometry>
        </mxCell>
        <mxCell id="3BsK45Nny69kr6Jffx9H-245" style="edgeStyle=orthogonalEdgeStyle;rounded=0;orthogonalLoop=1;jettySize=auto;html=1;entryX=0;entryY=0.25;entryDx=0;entryDy=0;" edge="1" parent="1" source="3BsK45Nny69kr6Jffx9H-247" target="3BsK45Nny69kr6Jffx9H-251">
          <mxGeometry relative="1" as="geometry">
            <Array as="points">
              <mxPoint x="2197" y="933" />
              <mxPoint x="2285" y="933" />
            </Array>
          </mxGeometry>
        </mxCell>
        <mxCell id="3BsK45Nny69kr6Jffx9H-246" value="FALSE" style="edgeLabel;html=1;align=center;verticalAlign=middle;resizable=0;points=[];" vertex="1" connectable="0" parent="3BsK45Nny69kr6Jffx9H-245">
          <mxGeometry x="-0.7622" y="-4" relative="1" as="geometry">
            <mxPoint y="1" as="offset" />
          </mxGeometry>
        </mxCell>
        <mxCell id="3BsK45Nny69kr6Jffx9H-247" value="if (Q1 == CORRECT)" style="rhombus;whiteSpace=wrap;html=1;" vertex="1" parent="1">
          <mxGeometry x="2079" y="766.5" width="236" height="100" as="geometry" />
        </mxCell>
        <mxCell id="3BsK45Nny69kr6Jffx9H-248" style="edgeStyle=orthogonalEdgeStyle;rounded=0;orthogonalLoop=1;jettySize=auto;html=1;" edge="1" parent="1" source="3BsK45Nny69kr6Jffx9H-249">
          <mxGeometry relative="1" as="geometry">
            <mxPoint x="1585" y="810" as="targetPoint" />
            <Array as="points">
              <mxPoint x="2435" y="706" />
              <mxPoint x="2435" y="635" />
              <mxPoint x="1585" y="635" />
              <mxPoint x="1585" y="754" />
            </Array>
          </mxGeometry>
        </mxCell>
        <mxCell id="3BsK45Nny69kr6Jffx9H-249" value="send slave green" style="shape=parallelogram;perimeter=parallelogramPerimeter;whiteSpace=wrap;html=1;fixedSize=1;" vertex="1" parent="1">
          <mxGeometry x="2271" y="687" width="150" height="40" as="geometry" />
        </mxCell>
        <mxCell id="3BsK45Nny69kr6Jffx9H-250" style="edgeStyle=orthogonalEdgeStyle;rounded=0;orthogonalLoop=1;jettySize=auto;html=1;entryX=0.5;entryY=1;entryDx=0;entryDy=0;" edge="1" parent="1" source="3BsK45Nny69kr6Jffx9H-251">
          <mxGeometry relative="1" as="geometry">
            <mxPoint x="2368.990740740741" y="902.5185185185182" as="sourcePoint" />
            <mxPoint x="1585" y="813" as="targetPoint" />
            <Array as="points">
              <mxPoint x="2469" y="941" />
              <mxPoint x="2469" y="980" />
              <mxPoint x="1585" y="980" />
            </Array>
          </mxGeometry>
        </mxCell>
        <mxCell id="3BsK45Nny69kr6Jffx9H-251" value="send slave red" style="shape=parallelogram;perimeter=parallelogramPerimeter;whiteSpace=wrap;html=1;fixedSize=1;" vertex="1" parent="1">
          <mxGeometry x="2290" y="920.5" width="150" height="40" as="geometry" />
        </mxCell>
        <mxCell id="3BsK45Nny69kr6Jffx9H-252" value="" style="edgeStyle=orthogonalEdgeStyle;rounded=0;orthogonalLoop=1;jettySize=auto;html=1;" edge="1" parent="1" target="3BsK45Nny69kr6Jffx9H-257">
          <mxGeometry relative="1" as="geometry">
            <mxPoint x="1572" y="814" as="sourcePoint" />
            <mxPoint x="1733" y="816" as="targetPoint" />
          </mxGeometry>
        </mxCell>
        <mxCell id="3BsK45Nny69kr6Jffx9H-253" value="" style="edgeStyle=orthogonalEdgeStyle;rounded=0;orthogonalLoop=1;jettySize=auto;html=1;" edge="1" parent="1" source="3BsK45Nny69kr6Jffx9H-257" target="3BsK45Nny69kr6Jffx9H-242">
          <mxGeometry relative="1" as="geometry" />
        </mxCell>
        <mxCell id="3BsK45Nny69kr6Jffx9H-254" value="FALSE" style="edgeLabel;html=1;align=center;verticalAlign=middle;resizable=0;points=[];" vertex="1" connectable="0" parent="3BsK45Nny69kr6Jffx9H-253">
          <mxGeometry x="-0.1027" y="1" relative="1" as="geometry">
            <mxPoint as="offset" />
          </mxGeometry>
        </mxCell>
        <mxCell id="3BsK45Nny69kr6Jffx9H-255" value="" style="edgeStyle=orthogonalEdgeStyle;rounded=0;orthogonalLoop=1;jettySize=auto;html=1;" edge="1" parent="1" source="3BsK45Nny69kr6Jffx9H-257" target="3BsK45Nny69kr6Jffx9H-258">
          <mxGeometry relative="1" as="geometry" />
        </mxCell>
        <mxCell id="3BsK45Nny69kr6Jffx9H-256" value="TRUE" style="edgeLabel;html=1;align=center;verticalAlign=middle;resizable=0;points=[];" vertex="1" connectable="0" parent="3BsK45Nny69kr6Jffx9H-255">
          <mxGeometry x="-0.5506" y="-1" relative="1" as="geometry">
            <mxPoint as="offset" />
          </mxGeometry>
        </mxCell>
        <mxCell id="3BsK45Nny69kr6Jffx9H-257" value="5 qs" style="rhombus;whiteSpace=wrap;html=1;" vertex="1" parent="1">
          <mxGeometry x="1627" y="773.5" width="80" height="80" as="geometry" />
        </mxCell>
        <mxCell id="3BsK45Nny69kr6Jffx9H-258" value="RETURN" style="strokeWidth=2;html=1;shape=mxgraph.flowchart.terminator;whiteSpace=wrap;fillColor=none;fontSize=16;" vertex="1" parent="1">
          <mxGeometry x="1607" y="888" width="120" height="54" as="geometry" />
        </mxCell>
        <mxCell id="3BsK45Nny69kr6Jffx9H-262" style="edgeStyle=orthogonalEdgeStyle;rounded=0;orthogonalLoop=1;jettySize=auto;html=1;entryX=0;entryY=0.5;entryDx=0;entryDy=0;entryPerimeter=0;" edge="1" parent="1" source="BdzRvveyDMJGJID9cPw9-22" target="3BsK45Nny69kr6Jffx9H-1">
          <mxGeometry relative="1" as="geometry">
            <Array as="points">
              <mxPoint x="757" y="199" />
              <mxPoint x="757" y="115" />
            </Array>
          </mxGeometry>
        </mxCell>
        <mxCell id="3BsK45Nny69kr6Jffx9H-268" value="" style="edgeStyle=orthogonalEdgeStyle;rounded=0;orthogonalLoop=1;jettySize=auto;html=1;" edge="1" parent="1" source="3BsK45Nny69kr6Jffx9H-265" target="3BsK45Nny69kr6Jffx9H-267">
          <mxGeometry relative="1" as="geometry" />
        </mxCell>
        <mxCell id="3BsK45Nny69kr6Jffx9H-265" value="DEFAULT" style="rhombus;whiteSpace=wrap;html=1;" vertex="1" parent="1">
          <mxGeometry x="1159" y="2104" width="113" height="49" as="geometry" />
        </mxCell>
        <mxCell id="3BsK45Nny69kr6Jffx9H-267" value="RETURN" style="strokeWidth=2;html=1;shape=mxgraph.flowchart.terminator;whiteSpace=wrap;fillColor=none;fontSize=16;" vertex="1" parent="1">
          <mxGeometry x="1156" y="2191" width="120" height="54" as="geometry" />
        </mxCell>
        <mxCell id="3BsK45Nny69kr6Jffx9H-272" value="" style="edgeStyle=orthogonalEdgeStyle;rounded=0;orthogonalLoop=1;jettySize=auto;html=1;" edge="1" parent="1" source="3BsK45Nny69kr6Jffx9H-269" target="3BsK45Nny69kr6Jffx9H-270">
          <mxGeometry relative="1" as="geometry" />
        </mxCell>
        <mxCell id="3BsK45Nny69kr6Jffx9H-269" value="EXIT_ISR" style="strokeWidth=2;html=1;shape=mxgraph.flowchart.terminator;whiteSpace=wrap;fillColor=none;fontSize=16;" vertex="1" parent="1">
          <mxGeometry x="2708" y="303" width="120" height="60" as="geometry" />
        </mxCell>
        <mxCell id="3BsK45Nny69kr6Jffx9H-273" value="" style="edgeStyle=orthogonalEdgeStyle;rounded=0;orthogonalLoop=1;jettySize=auto;html=1;" edge="1" parent="1" source="3BsK45Nny69kr6Jffx9H-270" target="3BsK45Nny69kr6Jffx9H-271">
          <mxGeometry relative="1" as="geometry" />
        </mxCell>
        <mxCell id="3BsK45Nny69kr6Jffx9H-270" value="EXIT GAME" style="whiteSpace=wrap;html=1;align=center;" vertex="1" parent="1">
          <mxGeometry x="2634" y="416.5" width="275" height="71" as="geometry" />
        </mxCell>
        <mxCell id="3BsK45Nny69kr6Jffx9H-271" value="RWTURN" style="strokeWidth=2;html=1;shape=mxgraph.flowchart.terminator;whiteSpace=wrap;fillColor=none;fontSize=16;" vertex="1" parent="1">
          <mxGeometry x="2714" y="525" width="120" height="60" as="geometry" />
        </mxCell>
        <mxCell id="3BsK45Nny69kr6Jffx9H-277" value="" style="edgeStyle=orthogonalEdgeStyle;rounded=0;orthogonalLoop=1;jettySize=auto;html=1;" edge="1" parent="1" source="3BsK45Nny69kr6Jffx9H-274" target="3BsK45Nny69kr6Jffx9H-276">
          <mxGeometry relative="1" as="geometry" />
        </mxCell>
        <mxCell id="3BsK45Nny69kr6Jffx9H-283" value="FALSE" style="edgeLabel;html=1;align=center;verticalAlign=middle;resizable=0;points=[];" vertex="1" connectable="0" parent="3BsK45Nny69kr6Jffx9H-277">
          <mxGeometry x="0.1489" relative="1" as="geometry">
            <mxPoint as="offset" />
          </mxGeometry>
        </mxCell>
        <mxCell id="3BsK45Nny69kr6Jffx9H-274" value="SLAVE" style="strokeWidth=2;html=1;shape=mxgraph.flowchart.terminator;whiteSpace=wrap;fillColor=none;fontSize=16;" vertex="1" parent="1">
          <mxGeometry x="3028" y="300" width="120" height="60" as="geometry" />
        </mxCell>
        <mxCell id="3BsK45Nny69kr6Jffx9H-275" value="BLINK GREEN" style="shape=parallelogram;perimeter=parallelogramPerimeter;whiteSpace=wrap;html=1;fixedSize=1;" vertex="1" parent="1">
          <mxGeometry x="3174" y="397.5" width="150" height="40" as="geometry" />
        </mxCell>
        <mxCell id="3BsK45Nny69kr6Jffx9H-278" value="" style="edgeStyle=orthogonalEdgeStyle;rounded=0;orthogonalLoop=1;jettySize=auto;html=1;" edge="1" parent="1" source="3BsK45Nny69kr6Jffx9H-276" target="3BsK45Nny69kr6Jffx9H-275">
          <mxGeometry relative="1" as="geometry" />
        </mxCell>
        <mxCell id="3BsK45Nny69kr6Jffx9H-282" value="" style="edgeStyle=orthogonalEdgeStyle;rounded=0;orthogonalLoop=1;jettySize=auto;html=1;" edge="1" parent="1" source="3BsK45Nny69kr6Jffx9H-276" target="3BsK45Nny69kr6Jffx9H-279">
          <mxGeometry relative="1" as="geometry" />
        </mxCell>
        <mxCell id="3BsK45Nny69kr6Jffx9H-284" value="FALSE" style="edgeLabel;html=1;align=center;verticalAlign=middle;resizable=0;points=[];" vertex="1" connectable="0" parent="3BsK45Nny69kr6Jffx9H-282">
          <mxGeometry x="-0.401" y="-2" relative="1" as="geometry">
            <mxPoint as="offset" />
          </mxGeometry>
        </mxCell>
        <mxCell id="3BsK45Nny69kr6Jffx9H-276" value="Case &#39;GREEN&#39;" style="rhombus;whiteSpace=wrap;html=1;" vertex="1" parent="1">
          <mxGeometry x="3031.5" y="393" width="113" height="49" as="geometry" />
        </mxCell>
        <mxCell id="3BsK45Nny69kr6Jffx9H-281" value="" style="edgeStyle=orthogonalEdgeStyle;rounded=0;orthogonalLoop=1;jettySize=auto;html=1;" edge="1" parent="1" source="3BsK45Nny69kr6Jffx9H-279" target="3BsK45Nny69kr6Jffx9H-280">
          <mxGeometry relative="1" as="geometry" />
        </mxCell>
        <mxCell id="3BsK45Nny69kr6Jffx9H-286" value="" style="edgeStyle=orthogonalEdgeStyle;rounded=0;orthogonalLoop=1;jettySize=auto;html=1;" edge="1" parent="1" source="3BsK45Nny69kr6Jffx9H-279" target="3BsK45Nny69kr6Jffx9H-285">
          <mxGeometry relative="1" as="geometry" />
        </mxCell>
        <mxCell id="3BsK45Nny69kr6Jffx9H-279" value="Case &#39;GREEN&#39;" style="rhombus;whiteSpace=wrap;html=1;" vertex="1" parent="1">
          <mxGeometry x="3031.5" y="476" width="113" height="49" as="geometry" />
        </mxCell>
        <mxCell id="3BsK45Nny69kr6Jffx9H-280" value="BLINK RED" style="shape=parallelogram;perimeter=parallelogramPerimeter;whiteSpace=wrap;html=1;fixedSize=1;" vertex="1" parent="1">
          <mxGeometry x="3158" y="480.5" width="150" height="40" as="geometry" />
        </mxCell>
        <mxCell id="3BsK45Nny69kr6Jffx9H-288" value="" style="edgeStyle=orthogonalEdgeStyle;rounded=0;orthogonalLoop=1;jettySize=auto;html=1;" edge="1" parent="1" source="3BsK45Nny69kr6Jffx9H-285" target="3BsK45Nny69kr6Jffx9H-287">
          <mxGeometry relative="1" as="geometry" />
        </mxCell>
        <mxCell id="3BsK45Nny69kr6Jffx9H-285" value="DEFAULT" style="rhombus;whiteSpace=wrap;html=1;" vertex="1" parent="1">
          <mxGeometry x="3031.5" y="548" width="113" height="49" as="geometry" />
        </mxCell>
        <mxCell id="3BsK45Nny69kr6Jffx9H-287" value="RWTURN" style="strokeWidth=2;html=1;shape=mxgraph.flowchart.terminator;whiteSpace=wrap;fillColor=none;fontSize=16;" vertex="1" parent="1">
          <mxGeometry x="3028" y="630" width="120" height="60" as="geometry" />
        </mxCell>
      </root>
    </mxGraphModel>
  </diagram>
</mxfile>
